# xmcd CD database file
#
# Track frame offsets:
#	150
#	18347
#	32403
#	58494
#	70661
#	91285
#	106871
#	140137
#	160341
#	196437
#	210512
#	232038
#
# Disc length: 3277 seconds
#
# Revision: 0
# Processed by: cddbd v1.5.1PL2 Copyright (c) Steve Scherf et al.
# Submitted via: CDex 1.51
#
DISCID=a60ccb0c
DTITLE=Byther Smith and Larry Davis - Blues Knights
DYEAR=2005
DGENRE=Blues
TTITLE0=As The Years Go Passing By
TTITLE1=I Tried
TTITLE2=Givin' Up On Love
TTITLE3=I'm A Honey Bee
TTITLE4=Adrresing The Nation To The Blues
TTITLE5=What Is This
TTITLE6=Tearsdrops
TTITLE7=Killin' Floor
TTITLE8=That's All Right
TTITLE9=Don't Make Me Talk Too Much
TTITLE10=I Don't Have A Mother
TTITLE11=I'm Broke
EXTD=YEAR: 2005
EXTT0=
EXTT1=
EXTT2=
EXTT3=
EXTT4=
EXTT5=
EXTT6=
EXTT7=
EXTT8=
EXTT9=
EXTT10=
EXTT11=
PLAYORDER=
